<mxfile host="app.diagrams.net" agent="Mozilla/5.0 (Macintosh; Intel Mac OS X 10_15_7) AppleWebKit/537.36 (KHTML, like Gecko) Chrome/137.0.0.0 Safari/537.36" version="26.2.14">
  <diagram name="第 1 页" id="dxHlWpqWK_yxKXi4-WBb">
    <mxGraphModel dx="1298" dy="840" grid="1" gridSize="10" guides="1" tooltips="1" connect="1" arrows="1" fold="1" page="1" pageScale="1" pageWidth="827" pageHeight="1169" math="0" shadow="0">
      <root>
        <mxCell id="0" />
        <mxCell id="1" parent="0" />
        <mxCell id="JvFCrvglhf8hU_LiwtBg-1" value="" style="rounded=1;whiteSpace=wrap;html=1;strokeWidth=2;arcSize=4;" vertex="1" parent="1">
          <mxGeometry x="120" y="170" width="250" height="350" as="geometry" />
        </mxCell>
        <mxCell id="JvFCrvglhf8hU_LiwtBg-2" value="OceanBase&lt;br&gt;4C16G" style="text;html=1;align=center;verticalAlign=middle;resizable=0;points=[];autosize=1;strokeColor=none;fillColor=none;fontSize=14;" vertex="1" parent="1">
          <mxGeometry x="185" y="530" width="100" height="50" as="geometry" />
        </mxCell>
        <mxCell id="JvFCrvglhf8hU_LiwtBg-4" value="&lt;span style=&quot;color: rgba(0, 0, 0, 0); font-family: monospace; font-size: 0px; text-align: start; text-wrap-mode: nowrap;&quot;&gt;%3CmxGraphModel%3E%3Croot%3E%3CmxCell%20id%3D%220%22%2F%3E%3CmxCell%20id%3D%221%22%20parent%3D%220%22%2F%3E%3CmxCell%20id%3D%222%22%20value%3D%22OceanBase%22%20style%3D%22text%3Bhtml%3D1%3Balign%3Dcenter%3BverticalAlign%3Dmiddle%3Bresizable%3D0%3Bpoints%3D%5B%5D%3Bautosize%3D1%3BstrokeColor%3Dnone%3BfillColor%3Dnone%3BfontSize%3D14%3B%22%20vertex%3D%221%22%20parent%3D%221%22%3E%3CmxGeometry%20x%3D%22185%22%20y%3D%22540%22%20width%3D%22100%22%20height%3D%2230%22%20as%3D%22geometry%22%2F%3E%3C%2FmxCell%3E%3C%2Froot%3E%3C%2FmxGraphModel%3E&lt;/span&gt;" style="rounded=0;whiteSpace=wrap;html=1;strokeWidth=2;" vertex="1" parent="1">
          <mxGeometry x="140" y="260" width="210" height="240" as="geometry" />
        </mxCell>
        <mxCell id="JvFCrvglhf8hU_LiwtBg-6" value="OB 租户——测试环境&lt;br&gt;4C12G" style="text;html=1;align=center;verticalAlign=middle;resizable=0;points=[];autosize=1;strokeColor=none;fillColor=none;fontSize=14;" vertex="1" parent="1">
          <mxGeometry x="155" y="360" width="160" height="50" as="geometry" />
        </mxCell>
      </root>
    </mxGraphModel>
  </diagram>
</mxfile>
